<svg version="1.1" id="Layer_1" xmlns="http://www.w3.org/2000/svg" xmlns:xlink="http://www.w3.org/1999/xlink" x="0px" y="0px"
	 width="100%" viewBox="0 0 1200 454" enable-background="new 0 0 1200 454" xml:space="preserve">
<path fill="#000000" opacity="1.000000" stroke="none" 
	d="
M770.000000,455.000000 
	C513.333374,455.000000 257.166718,455.000000 1.000069,455.000000 
	C1.000046,303.666718 1.000046,152.333435 1.000023,1.000109 
	C400.999908,1.000073 800.999817,1.000073 1200.999756,1.000036 
	C1200.999878,152.333221 1200.999878,303.666443 1201.000000,454.999817 
	C1057.500000,455.000000 914.000000,455.000000 770.000000,455.000000 
M284.124786,343.026917 
	C283.237488,349.381958 282.863251,355.863708 281.333282,362.060059 
	C279.411835,369.842010 273.625214,374.585693 266.505157,377.836578 
	C263.355621,379.274597 260.847961,381.889099 262.360291,385.249207 
	C263.286377,387.306793 266.406372,388.435760 268.649750,389.803528 
	C269.271118,390.182312 270.281555,389.958008 271.113068,389.952118 
	C314.562134,389.644043 358.011108,389.135040 401.460236,389.119568 
	C417.067688,389.114014 432.131958,386.754150 446.962860,382.167419 
	C462.483551,377.367371 475.663879,369.045135 485.010101,355.655884 
	C498.018768,337.019897 500.109955,316.077606 496.561584,294.219727 
	C493.844940,277.485199 485.344879,264.094482 471.827728,254.190842 
	C459.573639,245.212631 445.485626,240.516891 430.367035,238.960220 
	C423.751251,238.279037 417.142120,237.533508 410.529968,236.817200 
	C410.472137,236.393936 410.414337,235.970657 410.356506,235.547394 
	C411.624268,235.047882 412.851746,234.360825 414.166168,234.078766 
	C424.000000,231.968643 434.178406,230.895615 443.621887,227.665024 
	C458.775574,222.480988 471.423645,213.219315 478.678223,198.444855 
	C487.463959,180.552109 489.315277,161.826752 484.331512,142.294968 
	C479.370239,122.851326 467.852905,109.708458 449.559479,101.588455 
	C432.881775,94.185646 415.226929,92.478477 397.570831,92.209724 
	C355.935577,91.575958 314.284210,91.998085 272.639343,92.021729 
	C270.824371,92.022766 268.672424,91.749313 267.274719,92.593094 
	C265.248871,93.816093 263.000610,95.662766 262.240265,97.750694 
	C261.178009,100.667778 262.863251,102.780960 266.021301,104.228607 
	C275.870117,108.743324 282.172302,116.187546 283.226257,127.343193 
	C283.646667,131.792923 283.837494,136.264343 284.083832,141.707840 
	C284.055878,201.850296 284.021393,261.992767 284.009186,322.135223 
	C284.007843,328.797424 284.133392,335.459595 284.124786,343.026917 
M782.500000,91.999512 
	C773.002014,92.001228 763.504028,92.001244 754.006042,92.005432 
	C749.715210,92.007324 744.979187,92.299110 743.480469,96.887306 
	C741.905212,101.709938 746.390503,103.983788 749.800964,105.801361 
	C755.976990,109.092918 759.876160,114.274315 761.536804,120.626434 
	C763.366638,127.625801 764.829163,134.959518 764.858093,142.153992 
	C765.109802,204.805984 765.195374,267.460358 764.886047,330.111847 
	C764.794434,348.677887 761.939392,366.590240 745.581787,379.155212 
	C741.201294,382.520020 742.534363,387.290436 747.866211,388.946014 
	C750.346375,389.716217 753.085571,389.919678 755.708069,389.923981 
	C792.699890,389.984558 829.692017,390.030457 866.683594,389.908508 
	C873.307983,389.886688 880.038757,389.697113 886.530334,388.528931 
	C900.110901,386.085052 913.143433,381.871552 925.257812,374.950592 
	C942.644043,365.017822 956.451843,351.475861 967.105591,334.635284 
	C984.786743,306.686188 990.925964,275.505066 991.828491,243.097137 
	C992.145813,231.699768 991.461060,220.112595 989.699280,208.852188 
	C985.769043,183.732101 978.227112,159.857498 963.013428,138.854172 
	C950.454834,121.516151 934.118347,109.301346 914.611633,101.059677 
	C898.923462,94.431358 882.274170,92.345222 865.480652,92.106300 
	C838.158752,91.717590 810.827393,92.000221 782.500000,91.999512 
M255.126190,275.449402 
	C252.743454,271.463165 250.577896,267.326630 247.941071,263.516235 
	C235.315765,245.271866 218.268036,231.368759 201.870544,216.825974 
	C200.754318,215.835983 200.163544,214.253540 199.328400,212.946640 
	C200.536835,212.250061 201.668304,211.310120 202.967117,210.899399 
	C208.336594,209.201401 213.823303,207.857468 219.145447,206.029648 
	C233.456604,201.114731 245.253403,192.671494 252.729507,179.370743 
	C267.296936,153.453781 256.805786,118.755035 228.663940,101.908188 
	C210.346268,90.942482 190.086792,87.071991 169.203995,86.106018 
	C152.060013,85.312988 135.066147,87.064812 118.510422,91.961700 
	C92.036354,99.792274 73.073029,115.243454 66.320351,143.203506 
	C60.227127,168.432999 66.056480,191.176056 80.612839,212.058792 
	C89.903069,225.386658 101.549889,236.485626 114.086365,246.719025 
	C116.026848,248.303009 117.526619,250.426910 119.814285,252.943726 
	C115.914040,254.172943 113.159264,255.218674 110.317848,255.906479 
	C96.828125,259.171783 84.617096,265.084259 74.782715,274.868317 
	C56.450581,293.106659 51.998222,315.638489 58.739662,339.679993 
	C66.914558,368.833496 88.708031,384.194366 116.848763,392.096771 
	C132.987274,396.628754 149.434494,396.551605 165.824356,395.785339 
	C176.495468,395.286438 187.289337,393.628448 197.639740,390.974640 
	C211.833145,387.335449 224.996124,381.224579 236.410797,371.443573 
	C253.006348,357.223267 261.670746,339.376495 262.971863,317.786560 
	C263.843811,303.317841 262.045410,289.274445 255.126190,275.449402 
M1150.656860,377.147766 
	C1164.265015,366.193176 1174.400513,352.624023 1180.977539,336.457092 
	C1186.321655,323.320648 1190.081787,309.787506 1190.033691,295.454315 
	C1189.996948,284.534729 1191.278320,273.349823 1189.340820,262.764801 
	C1187.011841,250.041031 1182.771606,237.459610 1177.755859,225.488220 
	C1171.648315,210.910812 1161.395752,199.103088 1148.496826,189.729568 
	C1132.052246,177.779373 1113.755737,172.608994 1093.415039,172.868103 
	C1069.548706,173.172119 1049.213867,181.808258 1032.569336,198.197159 
	C1010.110107,220.311600 1001.384888,248.577316 1000.118652,279.315826 
	C999.263245,300.081055 1002.663330,320.351379 1011.335327,339.384033 
	C1020.389954,359.256470 1033.967163,375.262909 1053.463257,385.733551 
	C1070.071167,394.653137 1087.683350,397.154358 1106.426636,395.219299 
	C1122.881226,393.520508 1137.098877,387.337677 1150.656860,377.147766 
M651.543152,165.035828 
	C639.593567,171.765335 627.748596,178.691910 615.638123,185.118195 
	C611.360229,187.388168 610.543274,190.583786 611.212280,194.571686 
	C611.836121,198.290482 614.111023,200.126678 618.227478,200.069397 
	C624.968994,199.975571 624.956421,200.191071 625.004700,206.970337 
	C625.333435,253.095856 625.460083,299.224365 626.135559,345.344849 
	C626.328064,358.489716 631.355042,370.499329 640.602905,379.909088 
	C657.055237,396.649475 678.086365,398.954834 699.401245,394.360046 
	C730.030273,387.757355 744.089172,363.020630 745.961487,334.248932 
	C746.231506,330.099792 744.783386,326.602386 740.336792,326.289032 
	C736.103210,325.990723 733.986572,329.044556 733.002502,333.056824 
	C732.259644,336.085724 731.370239,339.184204 729.907166,341.908630 
	C727.012756,347.298431 720.919189,348.913574 715.478027,346.204956 
	C707.922424,342.443787 707.224854,335.024933 707.170593,328.260315 
	C706.848877,288.100647 707.046936,247.937012 706.952332,207.774994 
	C706.943420,203.988907 708.419678,202.863052 711.985229,202.958267 
	C718.646179,203.136139 725.316345,203.049469 731.981323,202.969406 
	C736.493408,202.915237 739.427063,200.243698 739.895813,195.773468 
	C740.103455,193.794006 740.031982,191.775833 739.967041,189.779144 
	C739.809021,184.918228 737.074036,182.127731 732.190002,182.047516 
	C725.858948,181.943558 719.510986,181.748566 713.197144,182.090103 
	C708.450867,182.346832 706.831238,180.828430 706.899597,175.936050 
	C707.150879,157.941620 706.994751,139.941437 706.981689,121.943413 
	C706.979065,118.398140 706.200378,115.161064 702.240112,114.165314 
	C696.714966,112.776070 693.863037,114.078651 691.708618,118.850624 
	C683.045715,138.039017 668.918884,152.471207 651.543152,165.035828 
M579.500000,389.965240 
	C589.659241,389.956238 599.821472,390.084045 609.976257,389.866699 
	C613.714417,389.786682 617.188599,388.604340 618.394714,384.256622 
	C619.533020,380.153076 616.730164,378.243225 614.158997,376.107880 
	C611.891418,374.224701 609.375244,372.510223 607.546448,370.253204 
	C601.360535,362.618805 600.075256,353.366638 600.051697,343.997803 
	C599.935791,297.864807 600.000183,251.731369 599.996765,205.598083 
	C599.996643,203.766434 600.115234,201.915863 599.902405,200.106583 
	C599.193726,194.082382 595.097473,191.047638 589.556946,192.323105 
	C581.986511,194.065842 574.490662,196.291672 566.833252,197.463531 
	C552.620422,199.638641 538.328125,201.326340 524.039429,202.959152 
	C517.953247,203.654648 511.712250,203.231537 505.703857,204.262390 
	C503.099579,204.709183 499.719116,207.120117 498.892883,209.427338 
	C498.209229,211.336441 500.093536,215.854004 501.986145,216.724854 
	C515.036316,222.729523 517.695557,234.294052 517.858582,246.531525 
	C518.279907,278.169678 518.383545,309.823883 517.829773,341.457977 
	C517.572144,356.178406 514.572449,370.290009 499.172424,377.828583 
	C497.536316,378.629517 496.280243,382.091461 496.475739,384.165436 
	C496.638306,385.889618 498.921875,387.981628 500.763855,388.831421 
	C502.910217,389.821594 505.597229,389.913300 508.051117,389.920807 
	C531.533936,389.992920 555.016968,389.964691 579.500000,389.965240 
M508.926117,128.618256 
	C508.792389,135.723831 507.324097,143.110397 508.751099,149.887344 
	C515.700195,182.889969 549.823364,195.070770 576.732056,182.552841 
	C597.929260,172.691849 608.300354,147.806885 600.453064,124.311775 
	C591.832336,98.500961 567.500061,86.679886 542.037964,93.598526 
	C524.514954,98.359947 514.127441,110.677025 508.926117,128.618256 
M1184.804443,132.266861 
	C1186.394653,129.749680 1188.455933,127.411400 1189.491699,124.683685 
	C1193.558838,113.971298 1188.510254,100.790108 1178.668335,94.860970 
	C1170.161377,89.736031 1155.512695,90.709709 1148.107178,100.366806 
	C1137.870972,113.715240 1141.309204,129.263596 1154.476929,137.274307 
	C1163.585815,142.815735 1173.227539,143.084793 1184.804443,132.266861 
z"/>
<path fill="#144A53" opacity="1.000000" stroke="none" 
	d="
M284.132812,140.725891 
	C283.837494,136.264343 283.646667,131.792923 283.226257,127.343193 
	C282.172302,116.187546 275.870117,108.743324 266.021301,104.228607 
	C262.863251,102.780960 261.178009,100.667778 262.240265,97.750694 
	C263.000610,95.662766 265.248871,93.816093 267.274719,92.593094 
	C268.672424,91.749313 270.824371,92.022766 272.639343,92.021729 
	C314.284210,91.998085 355.935577,91.575958 397.570831,92.209724 
	C415.226929,92.478477 432.881775,94.185646 449.559479,101.588455 
	C467.852905,109.708458 479.370239,122.851326 484.331512,142.294968 
	C489.315277,161.826752 487.463959,180.552109 478.678223,198.444855 
	C471.423645,213.219315 458.775574,222.480988 443.621887,227.665024 
	C434.178406,230.895615 424.000000,231.968643 414.166168,234.078766 
	C412.851746,234.360825 411.624268,235.047882 410.356506,235.547394 
	C410.414337,235.970657 410.472137,236.393936 410.529968,236.817200 
	C417.142120,237.533508 423.751251,238.279037 430.367035,238.960220 
	C445.485626,240.516891 459.573639,245.212631 471.827728,254.190842 
	C485.344879,264.094482 493.844940,277.485199 496.561584,294.219727 
	C500.109955,316.077606 498.018768,337.019897 485.010101,355.655884 
	C475.663879,369.045135 462.483551,377.367371 446.962860,382.167419 
	C432.131958,386.754150 417.067688,389.114014 401.460236,389.119568 
	C358.011108,389.135040 314.562134,389.644043 271.113068,389.952118 
	C270.281555,389.958008 269.271118,390.182312 268.649750,389.803528 
	C266.406372,388.435760 263.286377,387.306793 262.360291,385.249207 
	C260.847961,381.889099 263.355621,379.274597 266.505157,377.836578 
	C273.625214,374.585693 279.411835,369.842010 281.333282,362.060059 
	C282.863251,355.863708 283.237488,349.381958 284.334839,342.191040 
	C284.695831,339.536865 284.978149,337.718658 284.978821,335.900299 
	C285.001556,272.960480 285.006195,210.020676 284.961365,147.080887 
	C284.959839,144.962357 284.421112,142.844208 284.132812,140.725891 
M369.996490,275.500000 
	C369.998047,305.988312 369.986694,336.476654 370.011932,366.964966 
	C370.017029,373.133667 372.094910,374.880432 378.257812,374.138519 
	C390.689697,372.641907 396.782806,364.052521 400.948303,353.548187 
	C406.305878,340.037903 407.250000,325.882782 407.219055,311.477753 
	C407.185333,295.780365 406.661713,280.289520 401.004303,265.363983 
	C396.158356,252.579224 386.219269,244.721466 374.993530,244.953156 
	C371.354706,245.028244 369.917328,246.389328 369.972473,250.010101 
	C370.096802,258.171631 370.002106,266.336487 369.996490,275.500000 
M373.036316,229.760254 
	C375.317963,229.551926 377.697510,229.689774 379.864838,229.077057 
	C390.922455,225.951004 394.276062,216.576294 396.939941,207.013123 
	C401.729645,189.818268 401.885132,172.107132 400.706055,154.550705 
	C400.026306,144.429184 397.350555,134.318787 394.527496,124.504173 
	C392.380798,117.040977 387.914429,110.664673 379.632782,108.381165 
	C373.641541,106.729187 370.033325,109.258842 370.026367,115.302048 
	C369.984802,151.445053 369.972412,187.588272 370.103058,223.730865 
	C370.109955,225.633881 371.509827,227.531830 373.036316,229.760254 
z"/>
<path fill="#144A53" opacity="1.000000" stroke="none" 
	d="
M783.000000,91.999512 
	C810.827393,92.000221 838.158752,91.717590 865.480652,92.106300 
	C882.274170,92.345222 898.923462,94.431358 914.611633,101.059677 
	C934.118347,109.301346 950.454834,121.516151 963.013428,138.854172 
	C978.227112,159.857498 985.769043,183.732101 989.699280,208.852188 
	C991.461060,220.112595 992.145813,231.699768 991.828491,243.097137 
	C990.925964,275.505066 984.786743,306.686188 967.105591,334.635284 
	C956.451843,351.475861 942.644043,365.017822 925.257812,374.950592 
	C913.143433,381.871552 900.110901,386.085052 886.530334,388.528931 
	C880.038757,389.697113 873.307983,389.886688 866.683594,389.908508 
	C829.692017,390.030457 792.699890,389.984558 755.708069,389.923981 
	C753.085571,389.919678 750.346375,389.716217 747.866211,388.946014 
	C742.534363,387.290436 741.201294,382.520020 745.581787,379.155212 
	C761.939392,366.590240 764.794434,348.677887 764.886047,330.111847 
	C765.195374,267.460358 765.109802,204.805984 764.858093,142.153992 
	C764.829163,134.959518 763.366638,127.625801 761.536804,120.626434 
	C759.876160,114.274315 755.976990,109.092918 749.800964,105.801361 
	C746.390503,103.983788 741.905212,101.709938 743.480469,96.887306 
	C744.979187,92.299110 749.715210,92.007324 754.006042,92.005432 
	C763.504028,92.001244 773.002014,92.001228 783.000000,91.999512 
M850.595032,113.833992 
	C850.397095,116.315262 850.027283,118.796463 850.026306,121.277809 
	C849.995911,201.029831 849.992615,280.781860 850.035461,360.533844 
	C850.036987,363.337158 850.549805,366.140228 850.933655,369.715485 
	C850.780151,373.556519 853.364563,375.630768 856.460938,375.481537 
	C866.403992,375.002472 875.665833,372.750244 882.493530,364.353821 
	C888.133789,357.417664 890.870117,349.341156 892.969543,340.973877 
	C898.292542,319.758484 898.984253,297.951599 899.758423,276.304443 
	C900.524658,254.879944 899.772400,233.369354 898.901123,211.928436 
	C898.235718,195.555603 896.823730,179.174820 894.860413,162.904160 
	C893.009216,147.562180 889.771912,132.468002 880.320801,119.522415 
	C874.456970,111.490463 866.613770,107.874496 856.816650,107.911522 
	C853.221802,107.925110 851.117676,109.353836 850.595032,113.833992 
z"/>
<path fill="#144A53" opacity="1.000000" stroke="none" 
	d="
M255.302704,275.782867 
	C262.045410,289.274445 263.843811,303.317841 262.971863,317.786560 
	C261.670746,339.376495 253.006348,357.223267 236.410797,371.443573 
	C224.996124,381.224579 211.833145,387.335449 197.639740,390.974640 
	C187.289337,393.628448 176.495468,395.286438 165.824356,395.785339 
	C149.434494,396.551605 132.987274,396.628754 116.848763,392.096771 
	C88.708031,384.194366 66.914558,368.833496 58.739662,339.679993 
	C51.998222,315.638489 56.450581,293.106659 74.782715,274.868317 
	C84.617096,265.084259 96.828125,259.171783 110.317848,255.906479 
	C113.159264,255.218674 115.914040,254.172943 119.814285,252.943726 
	C117.526619,250.426910 116.026848,248.303009 114.086365,246.719025 
	C101.549889,236.485626 89.903069,225.386658 80.612839,212.058792 
	C66.056480,191.176056 60.227127,168.432999 66.320351,143.203506 
	C73.073029,115.243454 92.036354,99.792274 118.510422,91.961700 
	C135.066147,87.064812 152.060013,85.312988 169.203995,86.106018 
	C190.086792,87.071991 210.346268,90.942482 228.663940,101.908188 
	C256.805786,118.755035 267.296936,153.453781 252.729507,179.370743 
	C245.253403,192.671494 233.456604,201.114731 219.145447,206.029648 
	C213.823303,207.857468 208.336594,209.201401 202.967117,210.899399 
	C201.668304,211.310120 200.536835,212.250061 199.328400,212.946625 
	C200.163544,214.253540 200.754318,215.835983 201.870544,216.825974 
	C218.268036,231.368759 235.315765,245.271866 247.941071,263.516235 
	C250.577896,267.326630 252.743454,271.463165 255.302704,275.782867 
M125.774216,335.858673 
	C125.764282,345.806976 128.126587,355.260864 132.001266,364.336395 
	C135.680405,372.953918 141.357468,380.133667 150.952576,381.795044 
	C171.982788,385.436401 189.513123,369.837341 190.098251,348.426422 
	C190.685165,326.950500 182.788010,309.146606 167.782089,294.431366 
	C157.356201,284.207428 146.218689,274.707184 135.336853,264.953094 
	C134.187439,263.922791 132.618073,263.360992 130.666458,262.254761 
	C129.998917,264.783630 129.288101,266.627960 129.047668,268.531708 
	C127.907516,277.559082 126.377747,286.578888 125.961411,295.646118 
	C125.360413,308.735138 125.600266,321.862793 125.774216,335.858673 
M160.512817,180.010086 
	C169.208908,187.636398 177.904999,195.262695 187.383224,203.574921 
	C188.441727,200.448792 189.595413,198.241379 189.911041,195.920029 
	C192.486069,176.981995 194.295151,157.996811 191.907761,138.885284 
	C190.606339,128.467331 188.491165,118.340500 181.887421,109.685593 
	C172.784088,97.754753 149.673416,97.431305 141.626541,110.593590 
	C134.543884,122.178726 134.495438,134.580826 137.653442,147.130203 
	C141.042358,160.597275 150.607513,170.059509 160.512817,180.010086 
z"/>
<path fill="#144A53" opacity="1.000000" stroke="none" 
	d="
M1150.361450,377.348938 
	C1137.098877,387.337677 1122.881226,393.520508 1106.426636,395.219299 
	C1087.683350,397.154358 1070.071167,394.653137 1053.463257,385.733551 
	C1033.967163,375.262909 1020.389954,359.256470 1011.335327,339.384033 
	C1002.663330,320.351379 999.263245,300.081055 1000.118652,279.315826 
	C1001.384888,248.577316 1010.110107,220.311600 1032.569336,198.197159 
	C1049.213867,181.808258 1069.548706,173.172119 1093.415039,172.868103 
	C1113.755737,172.608994 1132.052246,177.779373 1148.496826,189.729568 
	C1161.395752,199.103088 1171.648315,210.910812 1177.755859,225.488220 
	C1182.771606,237.459610 1187.011841,250.041031 1189.340820,262.764801 
	C1191.278320,273.349823 1189.996948,284.534729 1190.033691,295.454315 
	C1190.081787,309.787506 1186.321655,323.320648 1180.977539,336.457092 
	C1174.400513,352.624023 1164.265015,366.193176 1150.361450,377.348938 
M1081.998047,230.659393 
	C1081.674194,236.121750 1081.037720,241.586426 1081.078247,247.046082 
	C1081.309326,278.164642 1081.334961,309.293030 1082.266602,340.393036 
	C1082.540039,349.523010 1085.284668,358.631073 1087.399292,367.631073 
	C1088.411011,371.937042 1090.266113,377.140839 1095.735229,376.693695 
	C1101.254272,376.242401 1103.328369,371.071350 1104.089478,366.238220 
	C1106.273804,352.365753 1108.677856,338.480621 1109.810425,324.504456 
	C1110.749146,312.918732 1110.046875,301.196442 1109.998047,289.534973 
	C1109.890869,263.956696 1111.247070,238.300903 1106.875610,212.921844 
	C1105.874512,207.109283 1103.953613,201.366425 1101.698364,195.904388 
	C1100.851440,193.853500 1097.660522,191.241898 1095.877563,191.475616 
	C1093.396118,191.800919 1091.154785,194.468506 1088.982422,196.333694 
	C1088.319580,196.902756 1088.076294,198.102295 1087.889282,199.061523 
	C1085.898315,209.271881 1083.957275,219.491974 1081.998047,230.659393 
z"/>
<path fill="#144A53" opacity="1.000000" stroke="none" 
	d="
M651.813354,164.800507 
	C668.918884,152.471207 683.045715,138.039017 691.708618,118.850624 
	C693.863037,114.078651 696.714966,112.776070 702.240112,114.165314 
	C706.200378,115.161064 706.979065,118.398140 706.981689,121.943413 
	C706.994751,139.941437 707.150879,157.941620 706.899597,175.936050 
	C706.831238,180.828430 708.450867,182.346832 713.197144,182.090103 
	C719.510986,181.748566 725.858948,181.943558 732.190002,182.047516 
	C737.074036,182.127731 739.809021,184.918228 739.967041,189.779144 
	C740.031982,191.775833 740.103455,193.794006 739.895813,195.773468 
	C739.427063,200.243698 736.493408,202.915237 731.981323,202.969406 
	C725.316345,203.049469 718.646179,203.136139 711.985229,202.958267 
	C708.419678,202.863052 706.943420,203.988907 706.952332,207.774994 
	C707.046936,247.937012 706.848877,288.100647 707.170593,328.260315 
	C707.224854,335.024933 707.922424,342.443787 715.478027,346.204956 
	C720.919189,348.913574 727.012756,347.298431 729.907166,341.908630 
	C731.370239,339.184204 732.259644,336.085724 733.002502,333.056824 
	C733.986572,329.044556 736.103210,325.990723 740.336792,326.289032 
	C744.783386,326.602386 746.231506,330.099792 745.961487,334.248932 
	C744.089172,363.020630 730.030273,387.757355 699.401245,394.360046 
	C678.086365,398.954834 657.055237,396.649475 640.602905,379.909088 
	C631.355042,370.499329 626.328064,358.489716 626.135559,345.344849 
	C625.460083,299.224365 625.333435,253.095856 625.004700,206.970337 
	C624.956421,200.191071 624.968994,199.975571 618.227478,200.069397 
	C614.111023,200.126678 611.836121,198.290482 611.212280,194.571686 
	C610.543274,190.583786 611.360229,187.388168 615.638123,185.118195 
	C627.748596,178.691910 639.593567,171.765335 651.813354,164.800507 
z"/>
<path fill="#144A53" opacity="1.000000" stroke="none" 
	d="
M579.000000,389.965240 
	C555.016968,389.964691 531.533936,389.992920 508.051117,389.920807 
	C505.597229,389.913300 502.910217,389.821594 500.763855,388.831421 
	C498.921875,387.981628 496.638306,385.889618 496.475739,384.165436 
	C496.280243,382.091461 497.536316,378.629517 499.172424,377.828583 
	C514.572449,370.290009 517.572144,356.178406 517.829773,341.457977 
	C518.383545,309.823883 518.279907,278.169678 517.858582,246.531525 
	C517.695557,234.294052 515.036316,222.729523 501.986145,216.724854 
	C500.093536,215.854004 498.209229,211.336441 498.892883,209.427338 
	C499.719116,207.120117 503.099579,204.709183 505.703857,204.262390 
	C511.712250,203.231537 517.953247,203.654648 524.039429,202.959152 
	C538.328125,201.326340 552.620422,199.638641 566.833252,197.463531 
	C574.490662,196.291672 581.986511,194.065842 589.556946,192.323105 
	C595.097473,191.047638 599.193726,194.082382 599.902405,200.106583 
	C600.115234,201.915863 599.996643,203.766434 599.996765,205.598083 
	C600.000183,251.731369 599.935791,297.864807 600.051697,343.997803 
	C600.075256,353.366638 601.360535,362.618805 607.546448,370.253204 
	C609.375244,372.510223 611.891418,374.224701 614.158997,376.107880 
	C616.730164,378.243225 619.533020,380.153076 618.394714,384.256622 
	C617.188599,388.604340 613.714417,389.786682 609.976257,389.866699 
	C599.821472,390.084045 589.659241,389.956238 579.000000,389.965240 
z"/>
<path fill="#144A53" opacity="1.000000" stroke="none" 
	d="
M508.981567,128.199051 
	C514.127441,110.677025 524.514954,98.359947 542.037964,93.598526 
	C567.500061,86.679886 591.832336,98.500961 600.453064,124.311775 
	C608.300354,147.806885 597.929260,172.691849 576.732056,182.552841 
	C549.823364,195.070770 515.700195,182.889969 508.751099,149.887344 
	C507.324097,143.110397 508.792389,135.723831 508.981567,128.199051 
z"/>
<path fill="#134952" opacity="1.000000" stroke="none" 
	d="
M1184.595825,132.561646 
	C1173.227539,143.084793 1163.585815,142.815735 1154.476929,137.274307 
	C1141.309204,129.263596 1137.870972,113.715240 1148.107178,100.366806 
	C1155.512695,90.709709 1170.161377,89.736031 1178.668335,94.860970 
	C1188.510254,100.790108 1193.558838,113.971298 1189.491699,124.683685 
	C1188.455933,127.411400 1186.394653,129.749680 1184.595825,132.561646 
M1177.651001,130.886322 
	C1185.960571,125.595100 1186.908691,113.121605 1182.398560,106.228165 
	C1176.880127,97.793381 1165.926025,94.511589 1156.856812,100.555649 
	C1151.989136,103.000275 1149.756836,107.412056 1148.405762,112.316437 
	C1146.497681,119.242722 1150.715576,128.661133 1157.217529,132.488312 
	C1163.843262,136.388351 1171.410034,135.805984 1177.651001,130.886322 
z"/>
<path fill="#000038" opacity="1.000000" stroke="none" 
	d="
M284.108337,141.216858 
	C284.421112,142.844208 284.959839,144.962357 284.961365,147.080887 
	C285.006195,210.020676 285.001556,272.960480 284.978821,335.900299 
	C284.978149,337.718658 284.695831,339.536865 284.372467,341.738464 
	C284.133392,335.459595 284.007843,328.797424 284.009186,322.135223 
	C284.021393,261.992767 284.055878,201.850296 284.108337,141.216858 
z"/>
<path fill="#000000" opacity="1.000000" stroke="none" 
	d="
M369.996490,275.000000 
	C370.002106,266.336487 370.096802,258.171631 369.972473,250.010101 
	C369.917328,246.389328 371.354706,245.028244 374.993530,244.953156 
	C386.219269,244.721466 396.158356,252.579224 401.004303,265.363983 
	C406.661713,280.289520 407.185333,295.780365 407.219055,311.477753 
	C407.250000,325.882782 406.305878,340.037903 400.948303,353.548187 
	C396.782806,364.052521 390.689697,372.641907 378.257812,374.138519 
	C372.094910,374.880432 370.017029,373.133667 370.011932,366.964966 
	C369.986694,336.476654 369.998047,305.988312 369.996490,275.000000 
z"/>
<path fill="#000000" opacity="1.000000" stroke="none" 
	d="
M372.648743,229.596191 
	C371.509827,227.531830 370.109955,225.633881 370.103058,223.730865 
	C369.972412,187.588272 369.984802,151.445053 370.026367,115.302048 
	C370.033325,109.258842 373.641541,106.729187 379.632782,108.381165 
	C387.914429,110.664673 392.380798,117.040977 394.527496,124.504173 
	C397.350555,134.318787 400.026306,144.429184 400.706055,154.550705 
	C401.885132,172.107132 401.729645,189.818268 396.939941,207.013123 
	C394.276062,216.576294 390.922455,225.951004 379.864838,229.077057 
	C377.697510,229.689774 375.317963,229.551926 372.648743,229.596191 
z"/>
<path fill="#000000" opacity="1.000000" stroke="none" 
	d="
M850.826233,113.056122 
	C851.117676,109.353836 853.221802,107.925110 856.816650,107.911522 
	C866.613770,107.874496 874.456970,111.490463 880.320801,119.522415 
	C889.771912,132.468002 893.009216,147.562180 894.860413,162.904160 
	C896.823730,179.174820 898.235718,195.555603 898.901123,211.928436 
	C899.772400,233.369354 900.524658,254.879944 899.758423,276.304443 
	C898.984253,297.951599 898.292542,319.758484 892.969543,340.973877 
	C890.870117,349.341156 888.133789,357.417664 882.493530,364.353821 
	C875.665833,372.750244 866.403992,375.002472 856.460938,375.481537 
	C853.364563,375.630768 850.780151,373.556519 850.927063,368.867188 
	C850.936340,283.695923 850.952515,199.372925 850.962158,115.049934 
	C850.962219,114.385338 850.873474,113.720726 850.826233,113.056122 
z"/>
<path fill="#093E50" opacity="1.000000" stroke="none" 
	d="
M850.710632,113.445053 
	C850.873474,113.720726 850.962219,114.385338 850.962158,115.049934 
	C850.952515,199.372925 850.936340,283.695923 850.872314,368.481140 
	C850.549805,366.140228 850.036987,363.337158 850.035461,360.533844 
	C849.992615,280.781860 849.995911,201.029831 850.026306,121.277809 
	C850.027283,118.796463 850.397095,116.315262 850.710632,113.445053 
z"/>
<path fill="#000000" opacity="1.000000" stroke="none" 
	d="
M125.627777,335.416321 
	C125.600266,321.862793 125.360413,308.735138 125.961411,295.646118 
	C126.377747,286.578888 127.907516,277.559082 129.047668,268.531708 
	C129.288101,266.627960 129.998917,264.783630 130.666458,262.254761 
	C132.618073,263.360992 134.187439,263.922791 135.336853,264.953094 
	C146.218689,274.707184 157.356201,284.207428 167.782089,294.431366 
	C182.788010,309.146606 190.685165,326.950500 190.098251,348.426422 
	C189.513123,369.837341 171.982788,385.436401 150.952576,381.795044 
	C141.357468,380.133667 135.680405,372.953918 132.001266,364.336395 
	C128.126587,355.260864 125.764282,345.806976 125.627777,335.416321 
z"/>
<path fill="#000000" opacity="1.000000" stroke="none" 
	d="
M160.261139,179.762100 
	C150.607513,170.059509 141.042358,160.597275 137.653442,147.130203 
	C134.495438,134.580826 134.543884,122.178726 141.626541,110.593590 
	C149.673416,97.431305 172.784088,97.754753 181.887421,109.685593 
	C188.491165,118.340500 190.606339,128.467331 191.907761,138.885284 
	C194.295151,157.996811 192.486069,176.981995 189.911041,195.920029 
	C189.595413,198.241379 188.441727,200.448792 187.383224,203.574921 
	C177.904999,195.262695 169.208908,187.636398 160.261139,179.762100 
z"/>
<path fill="#000000" opacity="1.000000" stroke="none" 
	d="
M1082.000244,230.184402 
	C1083.957275,219.491974 1085.898315,209.271881 1087.889282,199.061523 
	C1088.076294,198.102295 1088.319580,196.902756 1088.982422,196.333694 
	C1091.154785,194.468506 1093.396118,191.800919 1095.877563,191.475616 
	C1097.660522,191.241898 1100.851440,193.853500 1101.698364,195.904388 
	C1103.953613,201.366425 1105.874512,207.109283 1106.875610,212.921844 
	C1111.247070,238.300903 1109.890869,263.956696 1109.998047,289.534973 
	C1110.046875,301.196442 1110.749146,312.918732 1109.810425,324.504456 
	C1108.677856,338.480621 1106.273804,352.365753 1104.089478,366.238220 
	C1103.328369,371.071350 1101.254272,376.242401 1095.735229,376.693695 
	C1090.266113,377.140839 1088.411011,371.937042 1087.399292,367.631073 
	C1085.284668,358.631073 1082.540039,349.523010 1082.266602,340.393036 
	C1081.334961,309.293030 1081.309326,278.164642 1081.078247,247.046082 
	C1081.037720,241.586426 1081.674194,236.121750 1082.000244,230.184402 
z"/>
<path fill="#000000" opacity="1.000000" stroke="none" 
	d="
M1176.950562,130.969604 
	C1171.410034,135.805984 1163.843262,136.388351 1157.217529,132.488312 
	C1150.715576,128.661133 1146.497681,119.242722 1148.405762,112.316437 
	C1149.756836,107.412056 1151.989136,103.000275 1157.310425,100.601570 
	C1157.865356,100.793518 1157.966797,100.939552 1157.888916,101.460159 
	C1157.477417,109.905617 1157.080688,117.977997 1157.154175,126.046104 
	C1157.168701,127.632629 1158.998413,129.202621 1159.991089,130.780228 
	C1160.990356,129.196259 1162.121582,127.677742 1162.949463,126.008774 
	C1163.685425,124.524681 1164.085205,122.873848 1164.633301,121.296646 
	C1166.047729,122.422623 1167.825439,123.299896 1168.801636,124.725777 
	C1170.900513,127.791634 1172.033569,131.849121 1177.017456,131.024445 
	C1176.995239,131.006088 1176.950562,130.969604 1176.950562,130.969604 
z"/>
<path fill="#000000" opacity="1.000000" stroke="none" 
	d="
M1157.614014,100.427017 
	C1165.926025,94.511589 1176.880127,97.793381 1182.398560,106.228165 
	C1186.908691,113.121605 1185.960571,125.595100 1177.300781,130.927963 
	C1176.950562,130.969604 1176.995239,131.006088 1177.027344,130.693695 
	C1175.934937,126.873207 1174.810425,123.365105 1173.619141,119.648308 
	C1177.508545,116.857765 1179.075073,112.903473 1177.414307,108.071960 
	C1175.681396,103.030975 1172.152954,101.038109 1165.564941,101.008804 
	C1163.066162,100.997688 1160.567261,101.057899 1158.068359,101.085594 
	C1157.966797,100.939552 1157.865356,100.793518 1157.614014,100.427017 
z"/>
<path fill="#134952" opacity="1.000000" stroke="none" 
	d="
M1157.888916,101.460159 
	C1160.567261,101.057899 1163.066162,100.997688 1165.564941,101.008804 
	C1172.152954,101.038109 1175.681396,103.030975 1177.414307,108.071960 
	C1179.075073,112.903473 1177.508545,116.857765 1173.619141,119.648308 
	C1174.810425,123.365105 1175.934937,126.873207 1177.049561,130.712051 
	C1172.033569,131.849121 1170.900513,127.791634 1168.801636,124.725777 
	C1167.825439,123.299896 1166.047729,122.422623 1164.633301,121.296646 
	C1164.085205,122.873848 1163.685425,124.524681 1162.949463,126.008774 
	C1162.121582,127.677742 1160.990356,129.196259 1159.991089,130.780228 
	C1158.998413,129.202621 1157.168701,127.632629 1157.154175,126.046104 
	C1157.080688,117.977997 1157.477417,109.905617 1157.888916,101.460159 
M1168.136108,107.094597 
	C1165.933838,107.180260 1162.932983,106.337082 1163.170288,110.012283 
	C1163.297607,111.982910 1164.471313,113.885933 1165.172852,115.819405 
	C1167.338135,114.918533 1170.322998,114.593872 1171.463013,112.972252 
	C1172.918335,110.902420 1172.130859,108.131630 1168.136108,107.094597 
z"/>
<path fill="#000000" opacity="1.000000" stroke="none" 
	d="
M1168.543091,107.151855 
	C1172.130859,108.131630 1172.918335,110.902420 1171.463013,112.972252 
	C1170.322998,114.593872 1167.338135,114.918533 1165.172852,115.819427 
	C1164.471313,113.885933 1163.297607,111.982910 1163.170288,110.012283 
	C1162.932983,106.337082 1165.933838,107.180260 1168.543091,107.151855 
z"/>
</svg>